<?xml version="1.0" standalone="no"?>
<!DOCTYPE svg PUBLIC "-//W3C//DTD SVG 20010904//EN"
 "http://www.w3.org/TR/2001/REC-SVG-20010904/DTD/svg10.dtd">
<svg version="1.0" xmlns="http://www.w3.org/2000/svg"
 width="260.000000pt" height="260.000000pt" viewBox="0 0 260.000000 260.000000"
 preserveAspectRatio="xMidYMid meet">
<metadata>
Created by potrace 1.11, written by Peter Selinger 2001-2013
</metadata>
<g transform="translate(0.000000,260.000000) scale(0.100000,-0.100000)"
fill="#000000" stroke="none">
<path d="M0 1300 l0 -1300 1300 0 1300 0 0 1300 0 1300 -1300 0 -1300 0 0
-1300z m1050 25 l0 -625 -90 0 -90 0 0 78 0 77 -19 -30 c-58 -97 -195 -150
-325 -128 -81 14 -125 35 -184 88 -92 83 -136 200 -136 365 0 157 35 260 120
350 140 150 401 144 514 -11 l30 -42 0 251 0 252 90 0 90 0 0 -625z m298 243
c5 -18 42 -176 83 -350 41 -175 76 -318 79 -318 3 0 20 55 38 123 18 67 60
224 94 350 l61 227 87 0 86 0 94 -350 c51 -193 97 -347 101 -343 4 5 43 161
86 348 l79 340 87 3 c55 2 87 -1 87 -8 0 -5 -54 -206 -120 -445 -66 -240 -120
-438 -120 -440 0 -3 -42 -5 -94 -5 l-95 0 -14 53 c-9 28 -50 176 -92 327 -43
151 -81 279 -84 283 -4 4 -50 -143 -101 -328 l-94 -335 -92 0 c-80 0 -93 2
-98 18 -3 9 -57 206 -121 437 -64 231 -118 426 -120 433 -3 9 18 12 85 12 l89
0 9 -32z"/>
<path d="M571 1450 c-58 -14 -113 -61 -145 -124 -26 -49 -31 -72 -34 -151 -9
-206 80 -329 238 -328 146 2 235 117 235 303 0 114 -23 179 -85 241 -37 37
-58 49 -99 58 -58 12 -62 12 -110 1z"/>
</g>
</svg>
