<?xml version="1.0" standalone="no"?>
<!DOCTYPE svg PUBLIC "-//W3C//DTD SVG 20010904//EN"
 "http://www.w3.org/TR/2001/REC-SVG-20010904/DTD/svg10.dtd">
<svg version="1.0" xmlns="http://www.w3.org/2000/svg"
 width="260.000000pt" height="260.000000pt" viewBox="0 0 260.000000 260.000000"
 preserveAspectRatio="xMidYMid meet">
<metadata>
Created by potrace 1.11, written by Peter Selinger 2001-2013
</metadata>
<g transform="translate(0.000000,260.000000) scale(0.100000,-0.100000)"
fill="#000000" stroke="none">
<path d="M210 1300 l0 -1100 1100 0 1100 0 0 1100 0 1100 -1100 0 -1100 0 0
-1100z m1215 979 c222 -27 421 -124 580 -284 338 -338 386 -845 118 -1252 -48
-74 -182 -208 -256 -256 -349 -230 -765 -230 -1114 0 -74 48 -208 182 -256
256 -230 349 -230 765 0 1114 48 74 182 208 256 256 162 107 356 170 542 176
22 0 81 -4 130 -10z"/>
<path d="M1154 2200 c-384 -69 -685 -378 -745 -763 -17 -109 -6 -284 25 -390
89 -301 318 -530 623 -624 131 -40 375 -40 506 0 305 93 531 319 624 624 24
80 27 102 27 253 0 151 -3 173 -27 253 -94 305 -322 534 -624 623 -71 21 -114
27 -223 29 -74 2 -158 0 -186 -5z m6 -845 l0 -405 -45 0 -45 0 0 46 0 47 -21
-27 c-43 -55 -137 -83 -220 -65 -72 16 -122 57 -159 133 -28 56 -33 76 -33
143 -1 95 13 146 56 209 77 115 256 132 348 33 l29 -31 0 161 0 161 45 0 45 0
0 -405z m188 143 c5 -18 31 -122 58 -230 26 -108 50 -195 53 -193 2 3 32 105
66 227 l63 223 48 0 49 0 60 -215 c33 -118 63 -222 66 -230 3 -8 32 90 63 218
l58 232 48 0 49 0 -19 -66 c-11 -36 -47 -167 -81 -290 l-63 -225 -50 3 -50 3
-63 214 c-35 118 -64 216 -66 218 -2 1 -32 -96 -67 -217 l-64 -220 -51 0 -50
0 -78 283 c-43 155 -78 285 -77 290 0 4 20 7 45 7 41 0 45 -2 53 -32z"/>
<path d="M850 1443 c-74 -28 -113 -98 -114 -203 0 -62 4 -83 24 -119 37 -65
70 -86 138 -86 106 0 165 74 165 207 0 92 -31 154 -93 186 -42 21 -88 27 -120
15z"/>
</g>
</svg>
