<?xml version="1.0" encoding="UTF-8" standalone="no"?>
<svg width="72px" height="72px" viewBox="0 0 72 72" version="1.1" xmlns="http://www.w3.org/2000/svg" xmlns:xlink="http://www.w3.org/1999/xlink">
    <!-- Generator: Sketch 39.1 (31720) - http://www.bohemiancoding.com/sketch -->
    <title>briefcase_icon</title>
    <desc>Created with Sketch.</desc>
    <defs></defs>
    <g id="Page-1" stroke="none" stroke-width="1" fill="none" fill-rule="evenodd">
        <g id="Desktop-HD" transform="translate(-69.000000, -2399.000000)">
            <g id="section_4" transform="translate(0.000000, 2102.000000)">
                <g id="Employment" transform="translate(70.000000, 223.000000)">
                    <g id="briefcase_icon" transform="translate(0.000000, 75.000000)">
                        <circle id="Oval-1" stroke="#00AAE5" stroke-width="2" cx="35" cy="35" r="35"></circle>
                        <g id="briefcase" transform="translate(16.000000, 16.000000)" fill="#00AAE5">
                            <path d="M1.66666667,34.1666667 L1.66666667,20.8333333 L14.1666667,20.8333333 L14.1666667,24.1666667 L25.8333333,24.1666667 L25.8333333,20.8333333 L38.3333333,20.8333333 L38.3333333,34.1666667 L1.66666667,34.1666667 L1.66666667,34.1666667 Z M15.8333333,17.5 L24.1666667,17.5 L24.1666667,22.5 L15.8333333,22.5 L15.8333333,17.5 Z M14.1666667,5.83333333 L38.3333333,5.83333333 L38.3333333,19.1666667 L25.8333333,19.1666667 L25.8333333,15.8333333 L14.1666667,15.8333333 L14.1666667,19.1666667 L1.66666667,19.1666667 L1.66666667,5.83333333 L14.1666667,5.83333333 L14.1666667,5.83333333 Z M15.8333333,1.66666667 L24.1666667,1.66666667 L24.1666667,4.16666667 L15.8333333,4.16666667 L15.8333333,1.66666667 Z M25.8333333,4.16666667 L25.8333333,0 L14.1666667,0 L14.1666667,4.16666667 L0,4.16666667 L0,35.8333333 L40,35.8333333 L40,4.16666667 L25.8333333,4.16666667 L25.8333333,4.16666667 Z" id="Fill-81"></path>
                        </g>
                    </g>
                </g>
            </g>
        </g>
    </g>
</svg>