<?xml version="1.0" encoding="UTF-8" standalone="no"?>
<svg width="72px" height="72px" viewBox="0 0 72 72" version="1.1" xmlns="http://www.w3.org/2000/svg" xmlns:xlink="http://www.w3.org/1999/xlink">
    <!-- Generator: Sketch 39.1 (31720) - http://www.bohemiancoding.com/sketch -->
    <title>pen-icon</title>
    <desc>Created with Sketch.</desc>
    <defs></defs>
    <g id="Page-1" stroke="none" stroke-width="1" fill="none" fill-rule="evenodd">
        <g id="Desktop-HD" transform="translate(-69.000000, -768.000000)">
            <g id="section_2" transform="translate(0.000000, 500.000000)">
                <g id="points_left" transform="translate(70.000000, 144.000000)">
                    <g id="design" transform="translate(0.000000, 120.000000)">
                        <g id="pen-icon" transform="translate(0.000000, 5.000000)">
                            <circle id="Oval-1" stroke="#00AAE5" stroke-width="2" cx="35" cy="35" r="35"></circle>
                            <path d="M40.4028571,25.2660714 L44.0792857,28.9417857 L28.6342857,44.3867857 L24.9578571,40.7110714 L40.4028571,25.2660714 L40.4028571,25.2660714 Z M53.5614286,19.4589286 L45.0892857,27.9317857 L41.4128571,24.2560714 L49.885,15.7839286 L53.5614286,19.4589286 L53.5614286,19.4589286 Z M24.9107143,49.3867857 C23.3157143,50.9803571 20.5185714,51.5310714 18.5235714,51.7189286 L21.7757143,48.4675 L20.7657143,47.4575 L17.6507143,50.5725 C17.9042857,48.6667857 18.4092857,46.3582143 19.365,44.9232143 L19.4057143,44.8660714 L19.44,44.8160714 C19.4707143,44.7717857 19.5028571,44.7253571 19.5585714,44.6553571 C19.5828571,44.6239286 19.6064286,44.5925 19.6478571,44.5425 C19.7107143,44.4667857 19.775,44.3946429 19.8464286,44.3239286 C20.5228571,43.6475 21.4214286,43.2746429 22.3785714,43.2746429 C23.3342857,43.2746429 24.2335714,43.6475 24.9107143,44.3239286 C26.3057143,45.7196429 26.3057143,47.9910714 24.9107143,49.3867857 L24.9107143,49.3867857 Z M55.5814286,19.4589286 L49.885,13.7639286 L48.4914286,15.1582143 L46.5414286,13.2089286 C46.2621429,12.9303571 45.81,12.9303571 45.5314286,13.2089286 L33.9578571,24.7839286 C33.6785714,25.0625 33.6785714,25.5146429 33.9578571,25.7939286 C34.0971429,25.9332143 34.28,26.0032143 34.4628571,26.0032143 C34.6457143,26.0032143 34.8278571,25.9332143 34.9678571,25.7939286 L46.0364286,14.7246429 L47.4814286,16.1682143 L22.9378571,40.7110714 L24.5921429,42.3667857 C23.8964286,42.0217857 23.1371429,41.8460714 22.3785714,41.8460714 C21.0964286,41.8460714 19.8142857,42.3353571 18.8364286,43.3139286 C18.7357143,43.4132143 18.6392857,43.5203571 18.5471429,43.6325 C18.5014286,43.6860714 18.4578571,43.7425 18.4164286,43.7982143 C18.3664286,43.8610714 18.3185714,43.9267857 18.2728571,43.9932143 C18.2378571,44.0417857 18.2028571,44.0896429 18.1707143,44.1382143 C16.0935714,47.2610714 16,53.2346429 16,53.2346429 C16,53.2346429 16.2178571,53.2453571 16.5942857,53.2453571 C18.31,53.2453571 23.3064286,53.0103571 25.9207143,50.3967857 C27.4771429,48.8389286 27.7914286,46.5110714 26.8664286,44.6396429 L28.6342857,46.4067857 L55.5814286,19.4589286 L55.5814286,19.4589286 Z" id="Fill-23" fill="#00AAE5"></path>
                        </g>
                    </g>
                </g>
            </g>
        </g>
    </g>
</svg>